<?xml version="1.0" encoding="UTF-8" standalone="no"?>
<svg width="18px" height="18px" viewBox="0 0 18 18" version="1.1" xmlns="http://www.w3.org/2000/svg" xmlns:xlink="http://www.w3.org/1999/xlink">
    <!-- Generator: sketchtool 3.8.3 (29802) - http://www.bohemiancoding.com/sketch -->
    <title>693E4D74-3EF8-42B5-B4E7-586873B557A7</title>
    <desc>Created with sketchtool.</desc>
    <defs></defs>
    <g id="Page-1" stroke="none" stroke-width="1" fill-rule="evenodd">
        <g id="Admin_API" transform="translate(-463.000000, -85.000000)">
            <g id="Group-3" transform="translate(232.000000, 76.000000)">
                <path d="M243.5,20 L242.7,20 L242.4,19.7 C243.4,18.6 244,17.1 244,15.5 C244,11.9 241.1,9 237.5,9 C233.9,9 231,11.9 231,15.5 C231,19.1 233.9,22 237.5,22 C239.1,22 240.6,21.4 241.7,20.4 L242,20.7 L242,21.5 L247,26.5 L248.5,25 L243.5,20 L243.5,20 Z M237.5,20 C235,20 233,18 233,15.5 C233,13 235,11 237.5,11 C240,11 242,13 242,15.5 C242,18 240,20 237.5,20 L237.5,20 Z" id="Shape"></path>
            </g>
        </g>
    </g>
</svg>
